<?xml version="1.0" standalone="no"?>
<!DOCTYPE svg PUBLIC "-//W3C//DTD SVG 20010904//EN"
 "http://www.w3.org/TR/2001/REC-SVG-20010904/DTD/svg10.dtd">
<svg version="1.0" xmlns="http://www.w3.org/2000/svg"
 width="512.000000pt" height="512.000000pt" viewBox="0 0 512.000000 512.000000"
 preserveAspectRatio="xMidYMid meet">
<metadata>
Created by potrace 1.14, written by Peter Selinger 2001-2017
</metadata>
<g transform="translate(0.000000,512.000000) scale(0.100000,-0.100000)"
fill="#000000" stroke="none">
<path d="M2352 4949 c-305 -27 -571 -103 -857 -244 -478 -236 -848 -607 -1085
-1090 -169 -343 -244 -668 -244 -1055 0 -388 75 -714 244 -1055 162 -327 376
-596 655 -819 333 -266 687 -423 1125 -498 170 -30 546 -32 720 -4 637 100
1184 428 1570 941 338 450 513 1039 472 1587 -27 352 -95 606 -247 913 -119
242 -257 435 -445 624 -503 506 -1204 763 -1908 700z m661 -1558 c16 -6 44
-41 75 -93 28 -46 59 -91 69 -101 16 -14 47 -17 209 -19 l189 -3 3 -107 3
-107 53 -11 c149 -31 247 -177 216 -324 -23 -110 -109 -195 -221 -217 -57 -11
-59 -12 -59 -44 0 -64 -50 -231 -100 -330 -111 -224 -297 -394 -534 -486 l-71
-27 -3 -99 c-3 -98 -2 -100 23 -111 58 -27 71 -159 26 -265 -28 -65 -112 -151
-180 -184 -49 -24 -68 -27 -151 -27 -83 0 -102 3 -151 27 -68 33 -152 119
-180 184 -45 106 -32 238 26 265 25 11 26 13 23 111 l-3 99 -63 24 c-238 89
-432 264 -543 489 -49 100 -99 267 -99 330 0 32 -2 33 -59 44 -247 49 -310
375 -97 506 l49 30 650 5 649 5 17 21 c10 12 46 102 80 200 44 126 69 186 87
202 28 25 33 26 67 13z"/>
<path d="M2929 2855 c-39 -21 -59 -59 -59 -109 0 -66 38 -107 106 -113 46 -5
54 -2 87 27 24 20 39 44 43 67 18 95 -92 174 -177 128z"/>
<path d="M1932 2748 c-6 -6 -12 -20 -12 -29 0 -34 24 -40 165 -37 119 3 139 5
149 21 8 12 8 22 0 35 -10 15 -31 17 -150 20 -100 2 -143 -1 -152 -10z"/>
<path d="M2524 2091 c-86 -6 -144 -26 -144 -50 0 -5 -20 -6 -44 -4 -37 5 -45
2 -50 -14 -10 -31 3 -51 38 -63 17 -5 40 -23 49 -39 28 -48 98 -76 192 -76 94
0 149 22 180 72 11 18 34 37 52 43 34 12 47 32 37 63 -5 16 -13 19 -49 14 -31
-3 -45 0 -49 9 -6 17 -53 40 -91 46 -16 3 -71 2 -121 -1z"/>
</g>
</svg>
